<svg width="82" height="80" viewBox="0 0 82 80" fill="none" xmlns="http://www.w3.org/2000/svg">
<path d="M46.21 59.0399C46.52 66.7999 44.46 73.9799 40.79 79.4599C37.64 74.5999 35.65 68.4899 35.38 61.7999C35.07 54.0399 37.15 46.8599 40.8 41.3799C43.95 46.2399 45.94 52.3499 46.21 59.0399Z" fill="#B33D26"/>
<path d="M46.21 18.11C46.52 25.87 44.46 33.0499 40.79 38.5299C37.64 33.6699 35.65 27.5599 35.38 20.8699C35.07 13.1099 37.15 5.92995 40.8 0.449951C43.95 5.30995 45.94 11.42 46.21 18.11Z" fill="#B33D26"/>
<path d="M61.0106 34.2001C68.7706 33.8901 75.9506 35.9501 81.4306 39.6201C76.5706 42.7701 70.4606 44.7601 63.7706 45.0301C56.0106 45.3401 48.8306 43.2601 43.3506 39.6101C48.2106 36.4601 54.3206 34.4701 61.0106 34.2001Z" fill="#B33D26"/>
<path d="M18.4803 34.2001C26.2403 33.8901 33.4203 35.9501 38.9003 39.6201C34.0403 42.7701 27.9303 44.7601 21.2403 45.0301C13.4803 45.3401 6.30031 43.2601 0.820312 39.6101C5.68031 36.4601 11.7903 34.4701 18.4803 34.2001Z" fill="#B33D26"/>
<path d="M40.8006 47.0199C44.8931 47.0199 48.2106 43.7024 48.2106 39.61C48.2106 35.5175 44.8931 32.2 40.8006 32.2C36.7082 32.2 33.3906 35.5175 33.3906 39.61C33.3906 43.7024 36.7082 47.0199 40.8006 47.0199Z" fill="#035B23"/>
<path d="M40.8006 43.5999C43.0042 43.5999 44.7905 41.8135 44.7905 39.6099C44.7905 37.4063 43.0042 35.6199 40.8006 35.6199C38.5969 35.6199 36.8105 37.4063 36.8105 39.6099C36.8105 41.8135 38.5969 43.5999 40.8006 43.5999Z" fill="#F5E4CC"/>
</svg>
