<svg width="101" height="101" viewBox="0 0 101 101" fill="none" xmlns="http://www.w3.org/2000/svg">
<path d="M62.527 12.0519L50.5557 0.0805664L38.5843 12.0519L50.5557 24.0232L62.527 12.0519Z" fill="#FFA808"/>
<path d="M62.4449 88.5106L50.4736 76.5393L38.5023 88.5106L50.4736 100.482L62.4449 88.5106Z" fill="#FFA808"/>
<path d="M100.293 50.5912L88.3213 38.6199L76.35 50.5912L88.3213 62.5625L100.293 50.5912Z" fill="#FFA808"/>
<path d="M24.3883 50.3026L12.417 38.3313L0.445677 50.3026L12.417 62.2739L24.3883 50.3026Z" fill="#FFA808"/>
<path d="M50.3703 75.9298C64.3431 75.9298 75.6703 64.6026 75.6703 50.6298C75.6703 36.657 64.3431 25.3298 50.3703 25.3298C36.3975 25.3298 25.0703 36.657 25.0703 50.6298C25.0703 64.6026 36.3975 75.9298 50.3703 75.9298Z" fill="#FFA808"/>
<path d="M50.3701 66.1698C58.9526 66.1698 65.9101 59.2123 65.9101 50.6298C65.9101 42.0473 58.9526 35.0898 50.3701 35.0898C41.7876 35.0898 34.8301 42.0473 34.8301 50.6298C34.8301 59.2123 41.7876 66.1698 50.3701 66.1698Z" fill="#B33D26"/>
</svg>
