<svg width="72" height="71" viewBox="0 0 72 71" fill="none" xmlns="http://www.w3.org/2000/svg">
<path d="M0.120117 0.659912H13.7401C24.7901 0.659912 33.7701 9.62991 33.7701 20.6899V34.3099H20.1501C9.10012 34.3099 0.120117 25.3399 0.120117 14.2799V0.659912Z" fill="#FFA808"/>
<path d="M70.7598 0.659912V14.2799C70.7598 25.3299 61.7898 34.3099 50.7298 34.3099H37.1098V20.6899C37.1098 9.63991 46.0798 0.659912 57.1398 0.659912L70.7598 0.659912Z" fill="#FFA808"/>
<path d="M20.5603 36.5798H34.1803V50.1999C34.1803 61.2499 25.2103 70.2299 14.1503 70.2299H0.530273V56.6098C0.530273 45.5598 9.50027 36.5798 20.5603 36.5798Z" fill="#FFA808"/>
<path d="M37.5303 50.2V36.58H51.1503C62.2003 36.58 71.1803 45.55 71.1803 56.61V70.23H57.5603C46.5103 70.23 37.5303 61.26 37.5303 50.2Z" fill="#FFA808"/>
<path d="M42.7402 29.8098H29.2002V43.3498H42.7402V29.8098Z" fill="#700015"/>
</svg>
