<svg width="450" height="188" viewBox="0 0 450 188" fill="none" xmlns="http://www.w3.org/2000/svg">
<path d="M62.0817 45.9713L50.1104 34L38.139 45.9713L50.1103 57.9426L62.0817 45.9713Z" fill="#FFA808"/>
<path d="M61.9996 122.43L50.0283 110.459L38.057 122.43L50.0283 134.401L61.9996 122.43Z" fill="#FFA808"/>
<path d="M99.8473 84.5106L87.876 72.5393L75.9047 84.5106L87.876 96.482L99.8473 84.5106Z" fill="#FFA808"/>
<path d="M23.943 84.222L11.9717 72.2507L0.000364568 84.222L11.9717 96.1934L23.943 84.222Z" fill="#FFA808"/>
<path d="M49.925 109.849C63.8978 109.849 75.225 98.5221 75.225 84.5493C75.225 70.5765 63.8978 59.2493 49.925 59.2493C35.9522 59.2493 24.625 70.5765 24.625 84.5493C24.625 98.5221 35.9522 109.849 49.925 109.849Z" fill="#FFA808"/>
<path d="M49.9248 100.089C58.5073 100.089 65.4648 93.1318 65.4648 84.5493C65.4648 75.9668 58.5073 69.0093 49.9248 69.0093C41.3423 69.0093 34.3848 75.9668 34.3848 84.5493C34.3848 93.1318 41.3423 100.089 49.9248 100.089Z" fill="#B33D26"/>
<path d="M412.082 11.9713L400.11 0L388.139 11.9713L400.11 23.9426L412.082 11.9713Z" fill="#FFA808"/>
<path d="M412 88.4301L400.028 76.4587L388.057 88.4301L400.028 100.401L412 88.4301Z" fill="#FFA808"/>
<path d="M449.847 50.5106L437.876 38.5393L425.905 50.5106L437.876 62.482L449.847 50.5106Z" fill="#FFA808"/>
<path d="M373.943 50.222L361.972 38.2507L350 50.222L361.972 62.1934L373.943 50.222Z" fill="#FFA808"/>
<path d="M399.925 75.8493C413.898 75.8493 425.225 64.5221 425.225 50.5493C425.225 36.5765 413.898 25.2493 399.925 25.2493C385.952 25.2493 374.625 36.5765 374.625 50.5493C374.625 64.5221 385.952 75.8493 399.925 75.8493Z" fill="#FFA808"/>
<path d="M399.925 66.0893C408.507 66.0893 415.465 59.1318 415.465 50.5493C415.465 41.9668 408.507 35.0093 399.925 35.0093C391.342 35.0093 384.385 41.9668 384.385 50.5493C384.385 59.1318 391.342 66.0893 399.925 66.0893Z" fill="#B33D26"/>
<path d="M79.3897 166.59C79.6997 174.35 77.6397 181.53 73.9697 187.01C70.8197 182.15 68.8297 176.04 68.5597 169.35C68.2497 161.59 70.3297 154.41 73.9797 148.93C77.1297 153.79 79.1197 159.9 79.3897 166.59Z" fill="#B33D26"/>
<path d="M79.3897 125.66C79.6997 133.42 77.6397 140.6 73.9697 146.08C70.8197 141.22 68.8297 135.11 68.5597 128.42C68.2497 120.66 70.3297 113.48 73.9797 108C77.1297 112.86 79.1197 118.97 79.3897 125.66Z" fill="#B33D26"/>
<path d="M94.1903 141.75C101.95 141.44 109.13 143.5 114.61 147.17C109.75 150.32 103.64 152.31 96.9503 152.58C89.1903 152.89 82.0103 150.81 76.5303 147.16C81.3903 144.01 87.5003 142.02 94.1903 141.75Z" fill="#B33D26"/>
<path d="M51.66 141.75C59.42 141.44 66.6 143.5 72.08 147.17C67.22 150.32 61.11 152.31 54.42 152.58C46.66 152.89 39.48 150.81 34 147.16C38.86 144.01 44.97 142.02 51.66 141.75Z" fill="#B33D26"/>
<path d="M73.9803 154.57C78.0727 154.57 81.3903 151.252 81.3903 147.16C81.3903 143.068 78.0727 139.75 73.9803 139.75C69.8879 139.75 66.5703 143.068 66.5703 147.16C66.5703 151.252 69.8879 154.57 73.9803 154.57Z" fill="#035B23"/>
<path d="M73.9802 151.15C76.1839 151.15 77.9702 149.364 77.9702 147.16C77.9702 144.956 76.1839 143.17 73.9802 143.17C71.7766 143.17 69.9902 144.956 69.9902 147.16C69.9902 149.364 71.7766 151.15 73.9802 151.15Z" fill="#F5E4CC"/>
<path d="M369.154 109.342C369.347 114.155 368.069 118.609 365.792 122.008C363.839 118.993 362.604 115.203 362.437 111.054C362.245 106.24 363.535 101.787 365.799 98.3877C367.753 101.402 368.987 105.192 369.154 109.342Z" fill="#B33D26"/>
<path d="M369.154 83.954C369.347 88.7673 368.069 93.2208 365.792 96.6199C363.839 93.6054 362.604 89.8155 362.437 85.6659C362.245 80.8526 363.535 76.3991 365.799 73C367.753 76.0145 368.987 79.8044 369.154 83.954Z" fill="#B33D26"/>
<path d="M378.334 93.9343C383.147 93.742 387.601 95.0198 391 97.2961C387.985 99.25 384.195 100.484 380.046 100.652C375.233 100.844 370.779 99.5539 367.38 97.2899C370.394 95.3361 374.184 94.1018 378.334 93.9343Z" fill="#B33D26"/>
<path d="M351.954 93.9343C356.767 93.742 361.221 95.0198 364.62 97.2961C361.605 99.25 357.816 100.484 353.666 100.652C348.853 100.844 344.399 99.5539 341 97.2899C344.015 95.3361 347.804 94.1018 351.954 93.9343Z" fill="#B33D26"/>
<path d="M365.798 101.886C368.337 101.886 370.395 99.8282 370.395 97.2898C370.395 94.7514 368.337 92.6936 365.798 92.6936C363.26 92.6936 361.202 94.7514 361.202 97.2898C361.202 99.8282 363.26 101.886 365.798 101.886Z" fill="#035B23"/>
<path d="M365.798 99.7647C367.165 99.7647 368.273 98.6567 368.273 97.2898C368.273 95.923 367.165 94.8149 365.798 94.8149C364.431 94.8149 363.323 95.923 363.323 97.2898C363.323 98.6567 364.431 99.7647 365.798 99.7647Z" fill="#F5E4CC"/>
<path d="M92 106H98.7084C104.151 106 108.574 110.418 108.574 115.866V122.574H101.866C96.423 122.574 92 118.156 92 112.708V106Z" fill="#FFA808"/>
<path d="M126.793 106V112.708C126.793 118.151 122.375 122.574 116.927 122.574H110.219V115.866C110.219 110.423 114.637 106 120.085 106H126.793Z" fill="#FFA808"/>
<path d="M102.068 123.692H108.776V130.4C108.776 135.843 104.358 140.266 98.9106 140.266H92.2021V133.557C92.2021 128.115 96.6202 123.692 102.068 123.692Z" fill="#FFA808"/>
<path d="M110.426 130.401V123.692H117.134C122.577 123.692 127 128.11 127 133.558V140.266H120.291C114.849 140.266 110.426 135.848 110.426 130.401Z" fill="#FFA808"/>
<path d="M112.992 120.357H106.323V127.026H112.992V120.357Z" fill="#700015"/>
<g clip-path="url(#clip0_162_2292)">
<path d="M203.699 111.437L196.507 104.282L189.314 111.437L196.507 118.592L203.699 111.437Z" fill="#FFA808"/>
<path d="M157.948 59H145V90.1153H149.915V82.6383H157.9C165.974 82.6383 171.406 77.8867 171.406 70.8221C171.406 64.9409 167.242 59 157.948 59ZM166.353 70.8161C166.353 75.0955 162.958 78.2035 158.272 78.2035H149.915V63.4348H158.32C162.976 63.4348 166.353 66.5427 166.353 70.8221V70.8161Z" fill="#B33D26"/>
<path d="M196.015 81.0305C200.077 79.112 202.564 75.2868 202.564 70.8699C202.57 63.7755 197.145 59 189.064 59H176.116V90.1153H181.031V82.6383H188.739C189.629 82.6383 190.614 82.5665 191.413 82.453L197.499 90.1153H203.465L196.021 81.0245L196.015 81.0305ZM197.469 70.8699C197.469 75.0836 193.978 78.2573 189.346 78.2573H181.037V63.387H189.394C194.003 63.387 197.475 66.6025 197.475 70.8699H197.469Z" fill="#B33D26"/>
<path d="M223.665 59C214.791 59 207.84 65.8375 207.84 74.5636C207.84 83.2897 214.791 90.1272 223.665 90.1272C232.539 90.1272 239.443 83.2897 239.443 74.5636C239.443 65.8375 232.509 59 223.665 59ZM232.329 81.2995C230.286 84.0667 227.132 85.6566 223.665 85.6566C217.561 85.6566 212.779 80.7795 212.779 74.5576C212.779 71.0612 214.299 67.8576 216.948 65.7598C218.871 64.2417 221.184 63.4587 223.647 63.4587C224.561 63.4587 225.498 63.5663 226.447 63.7874C229.938 64.5943 232.792 67.242 233.885 70.6906C235.081 74.456 234.51 78.323 232.317 81.2935L232.329 81.2995Z" fill="#B33D26"/>
<path d="M265.638 59V77.1336C265.638 82.4291 262.718 85.4653 257.629 85.4653C252.54 85.4653 249.62 82.4291 249.62 77.1336V59H244.771V77.2711C244.771 85.1306 249.698 90.0137 257.629 90.0137C265.56 90.0137 270.486 85.0111 270.486 77.2711V59H265.638Z" fill="#B33D26"/>
<path d="M287.664 59H275.647V90.1153H287.664C297.127 90.1153 304 83.5707 304 74.5576C304 65.5446 297.127 59 287.664 59ZM280.562 63.4288H287.435C294.213 63.4288 298.947 68.007 298.947 74.5576C298.947 81.1082 294.213 85.6864 287.435 85.6864H280.562V63.4348V63.4288Z" fill="#B33D26"/>
<path d="M234.51 94.8846L225.065 115.457C224.638 116.425 224.062 117.955 223.635 119.115C223.22 117.943 222.65 116.395 222.217 115.445L212.772 94.8787H207.653L221.4 125.54L221.556 125.892H225.726L239.629 94.8787H234.51V94.8846Z" fill="#B33D26"/>
<path d="M295.463 116.909C299.524 114.991 302.012 111.16 302.012 106.749C302.012 99.6543 296.586 94.8848 288.505 94.8848C281.368 94.8848 275.558 100.664 275.558 107.765V126H280.472V118.523H288.181C289.07 118.523 290.055 118.451 290.854 118.338L296.941 126H302.907L295.463 116.909ZM296.917 106.749C296.917 110.962 293.426 114.136 288.794 114.136H280.484V107.58C280.484 102.995 284.233 99.2658 288.842 99.2658C293.45 99.2658 296.923 102.481 296.923 106.749H296.917Z" fill="#B33D26"/>
<path d="M249.692 121.571V111.596H267.512V107.215H249.692V99.3136H268.72V94.8848H244.777V126H269.417V121.571H249.692Z" fill="#B33D26"/>
<path d="M150.617 109.157V113.718H147.89C147.259 113.718 146.688 113.461 146.274 113.048C145.859 112.636 145.601 112.068 145.601 111.441C145.601 110.18 146.628 109.157 147.89 109.157H150.617Z" fill="#FFA808"/>
<path d="M164.875 109.157H153.219V113.718H164.875V109.157Z" fill="#FFA808"/>
<path d="M177.829 109.157H167.477V113.718H177.829V109.157Z" fill="#FFA808"/>
<path d="M201.969 111.441C201.969 112.696 200.942 113.718 199.674 113.718H180.43V109.157H199.674C200.305 109.157 200.881 109.414 201.296 109.827C201.711 110.239 201.969 110.807 201.969 111.441Z" fill="#FFA808"/>
</g>
<defs>
<clipPath id="clip0_162_2292">
<rect width="159" height="67" fill="white" transform="translate(145 59)"/>
</clipPath>
</defs>
</svg>
