<svg width="265" height="113" viewBox="0 0 265 113" fill="none" xmlns="http://www.w3.org/2000/svg">
<g clip-path="url(#clip0_147_206)">
<path d="M97.6998 87.7347L85.7285 75.7634L73.7572 87.7347L85.7285 99.7061L97.6998 87.7347Z" fill="#FFA808"/>
<path d="M21.55 0H0V52.06H8.18V39.55H21.47C34.91 39.55 43.95 31.6 43.95 19.78C43.95 9.94 37.02 0 21.55 0ZM35.54 19.77C35.54 26.93 29.89 32.13 22.09 32.13H8.18V7.42H22.17C29.92 7.42 35.54 12.62 35.54 19.78V19.77Z" fill="#B33D26"/>
<path d="M84.91 36.86C91.67 33.65 95.81 27.25 95.81 19.86C95.82 7.99 86.79 0 73.34 0H51.79V52.06H59.97V39.55H72.8C74.28 39.55 75.92 39.43 77.25 39.24L87.38 52.06H97.31L84.92 36.85L84.91 36.86ZM87.33 19.86C87.33 26.91 81.52 32.22 73.81 32.22H59.98V7.34H73.89C81.56 7.34 87.34 12.72 87.34 19.86H87.33Z" fill="#B33D26"/>
<path d="M130.93 0C116.16 0 104.59 11.44 104.59 26.04C104.59 40.64 116.16 52.08 130.93 52.08C145.7 52.08 157.19 40.64 157.19 26.04C157.19 11.44 145.65 0 130.93 0ZM145.35 37.31C141.95 41.94 136.7 44.6 130.93 44.6C120.77 44.6 112.81 36.44 112.81 26.03C112.81 20.18 115.34 14.82 119.75 11.31C122.95 8.77 126.8 7.46 130.9 7.46C132.42 7.46 133.98 7.64 135.56 8.01C141.37 9.36 146.12 13.79 147.94 19.56C149.93 25.86 148.98 32.33 145.33 37.3L145.35 37.31Z" fill="#B33D26"/>
<path d="M200.79 0V30.34C200.79 39.2 195.93 44.28 187.46 44.28C178.99 44.28 174.13 39.2 174.13 30.34V0H166.06V30.57C166.06 43.72 174.26 51.89 187.46 51.89C200.66 51.89 208.86 43.52 208.86 30.57V0H200.79Z" fill="#B33D26"/>
<path d="M237.45 0H217.45V52.06H237.45C253.2 52.06 264.64 41.11 264.64 26.03C264.64 10.95 253.2 0 237.45 0ZM225.63 7.41H237.07C248.35 7.41 256.23 15.07 256.23 26.03C256.23 36.99 248.35 44.65 237.07 44.65H225.63V7.42V7.41Z" fill="#B33D26"/>
<path d="M148.98 60.04L133.26 94.46C132.55 96.08 131.59 98.64 130.88 100.58C130.19 98.62 129.24 96.03 128.52 94.44L112.8 60.03H104.28L127.16 111.33L127.42 111.92H134.36L157.5 60.03H148.98V60.04Z" fill="#B33D26"/>
<path d="M250.43 96.89C257.19 93.68 261.33 87.27 261.33 79.89C261.33 68.02 252.3 60.04 238.85 60.04C226.97 60.04 217.3 69.71 217.3 81.59V112.1H225.48V99.59H238.31C239.79 99.59 241.43 99.47 242.76 99.28L252.89 112.1H262.82L250.43 96.89ZM252.85 79.89C252.85 86.94 247.04 92.25 239.33 92.25H225.5V81.28C225.5 73.61 231.74 67.37 239.41 67.37C247.08 67.37 252.86 72.75 252.86 79.89H252.85Z" fill="#B33D26"/>
<path d="M174.25 104.69V88H203.91V80.67H174.25V67.45H205.92V60.04H166.07V112.1H207.08V104.69H174.25Z" fill="#B33D26"/>
<path d="M9.35 83.9199V91.5499H4.81C3.76 91.5499 2.81 91.1199 2.12 90.4299C1.43 89.7399 1 88.7899 1 87.7399C1 85.6299 2.71 83.9199 4.81 83.9199H9.35Z" fill="#FFA808"/>
<path d="M33.0797 83.9199H13.6797V91.5499H33.0797V83.9199Z" fill="#FFA808"/>
<path d="M54.6402 83.9199H37.4102V91.5499H54.6402V83.9199Z" fill="#FFA808"/>
<path d="M94.8197 87.7399C94.8197 89.8399 93.1097 91.5499 90.9997 91.5499H58.9697V83.9199H90.9997C92.0497 83.9199 93.0097 84.3499 93.6997 85.0399C94.3897 85.7299 94.8197 86.6799 94.8197 87.7399Z" fill="#FFA808"/>
</g>
<defs>
<clipPath id="clip0_147_206">
<rect width="264.64" height="112.1" fill="white"/>
</clipPath>
</defs>
</svg>
